<svg xmlns="http://www.w3.org/2000/svg" width="218" height="40" viewBox="0 0 216 40"><path d="M59.441 23.492c-.164-.441-.25-1.047-.25-1.82 0-.777.266-3.074.793-6.895.528-3.808.79-6.87.79-9.18 0-.542-.04-1.285-.118-2.226 1.364.074 2.219.399 2.567.969.18.332.297.648.347.945.051.297.078.77.078 1.414 0 .633-.289 3.043-.867 7.227-.593 4.18-.894 7.164-.906 8.945.09-.027.25-.039.48-.039 3.895 0 6.797-.27 8.7-.812-.13 1.046-.485 1.859-1.063 2.437-.59.582-1.324.875-2.199.875-.258 0-1.035-.059-2.332-.176a42.744 42.744 0 00-3.8-.176c-1.22 0-2.45.118-3.684.352.246-.8.734-1.414 1.464-1.84zm17.766-8.988a13.164 13.164 0 00-1.195 2.789 9.398 9.398 0 00-.426 2.73c0 .868.191 1.602.578 2.207.387.61.938.91 1.66.91 1.016 0 1.961-.554 2.832-1.663.89-1.125 1.57-2.473 2.047-4.047.477-1.59.715-3.055.715-4.399 0-1.34-.055-2.445-.156-3.308.425-.04.695-.059.808-.059 1.532 0 2.297.785 2.297 2.363 0 .336-.219 1.73-.656 4.184-.426 2.453-.637 4.414-.637 5.887 0 1.468.278 2.773.828 3.91-1.129-.23-1.953-.735-2.468-1.512-.512-.762-.77-1.863-.77-3.308 0-.258.04-.75.117-1.473-.492 1.715-1.344 3.098-2.566 4.144-1.235 1.059-2.438 1.586-3.606 1.586-1.183 0-2.136-.449-2.855-1.355-.719-.89-1.082-2.121-1.082-3.7 0-1.585.297-3.136.89-4.644a10.268 10.268 0 012.641-3.914c1.168-1.11 2.488-1.664 3.953-1.664.63 0 1.324.129 2.082.387a7.515 7.515 0 00-2.93 1.492 9.036 9.036 0 00-2.101 2.457zm27.172-8.23l.02.331c0 .684-.258 2.93-.77 6.739-.516 3.797-.774 6.972-.774 9.527 0 1.137.06 2.02.176 2.652-.437.04-.676.059-.715.059-.808 0-1.414-.187-1.812-.562-.387-.375-.578-.98-.578-1.82 0-.84.3-3.407.906-7.708.59-4.285.887-7.344.887-9.18 0-1.832-.121-3.035-.367-3.601a3.329 3.329 0 011.601.68c.5.359.875.851 1.117 1.468 1.38-.734 2.907-1.101 4.59-1.101 1.672 0 2.992.515 3.957 1.547.961 1.047 1.445 2.324 1.445 3.836 0 1.937-.699 3.68-2.101 5.23-1.402 1.535-3.293 2.305-5.672 2.305-.539 0-1.035-.035-1.484-.098l-.078-.871c1.21 0 2.265-.184 3.164-.543.898-.363 1.582-.84 2.043-1.434.914-1.16 1.37-2.52 1.37-4.066 0-1.125-.355-2.059-1.062-2.809-.707-.75-1.734-1.125-3.086-1.125-.808 0-1.734.184-2.777.543zm15.66 8.23a13.05 13.05 0 00-1.215 2.789 9.9 9.9 0 00-.402 2.73c0 .868.191 1.602.578 2.207.387.61.938.91 1.656.91 1.004 0 1.95-.554 2.836-1.663.875-1.125 1.551-2.473 2.028-4.047.488-1.59.73-3.055.73-4.399 0-1.34-.059-2.445-.172-3.308.438-.04.707-.059.809-.059 1.531 0 2.297.785 2.297 2.363 0 .336-.215 1.73-.637 4.184-.438 2.453-.656 4.414-.656 5.887 0 1.468.277 2.773.828 3.91-1.13-.23-1.953-.735-2.469-1.512-.512-.762-.77-1.863-.77-3.308 0-.258.04-.75.114-1.473-.489 1.715-1.344 3.098-2.563 4.144-1.222 1.059-2.426 1.586-3.61 1.586-1.179 0-2.132-.449-2.85-1.355-.723-.89-1.083-2.121-1.083-3.7 0-1.585.297-3.136.887-4.644a10.322 10.322 0 012.645-3.914c1.183-1.11 2.5-1.664 3.953-1.664.629 0 1.324.129 2.082.387-1.067.27-2.04.77-2.91 1.492-.887.723-1.59 1.543-2.106 2.457zm25.828-1.18c0 .824-.176 2.293-.523 4.395-.348 2.105-.52 3.64-.52 4.61 0 .956.117 1.648.348 2.073.23.426.629.785 1.195 1.082-.246.028-.578.04-1.004.04-1.222 0-2.09-.231-2.601-.696-.516-.465-.774-1.293-.774-2.48 0-.672.18-2.02.54-4.047.363-2.04.542-3.54.542-4.492 0-1.188-.363-1.782-1.082-1.782-1.156 0-2.351 1.02-3.586 3.059-1.234 2.039-1.851 4.5-1.851 7.379 0 1.137.058 2.02.172 2.652-.477.04-.758.059-.848.059-1.582 0-2.371-.781-2.371-2.344 0-.36.191-1.75.578-4.164.371-2.426.559-4.355.559-5.79 0-1.444-.153-2.769-.461-3.968 1.066.41 1.812 1 2.234 1.762.426.773.637 1.652.637 2.633 0 .98-.11 2.125-.328 3.425.593-2.039 1.523-3.753 2.797-5.148 1.261-1.41 2.445-2.113 3.55-2.113 1.864 0 2.797 1.285 2.797 3.855zm12.938-3.058c0 .746-.14 1.27-.422 1.566-.297.285-.719.426-1.274.426h-1.949c-.074.476-.262 1.601-.558 3.37-.618 3.356-.926 5.895-.926 7.61 0 1.719.129 2.86.387 3.43-1.028-.387-1.762-.965-2.2-1.727-.425-.773-.636-1.707-.636-2.804 0-1.114.066-2.157.191-3.14.144-.981.336-2.13.582-3.446.254-1.328.438-2.387.54-3.176-1.028.14-2.04.434-3.028.871a8.707 8.707 0 01-.04-.793c0-.867.282-1.445.848-1.742.578-.297 1.407-.445 2.489-.445.129-1.344.191-2.344.191-3.004 0-.657-.004-1.188-.02-1.586v-.89c.825.128 1.461.495 1.91 1.1.45.594.676 1.423.676 2.481 0 .543-.046 1.2-.136 1.973 1.57 0 2.675-.262 3.32-.793.04.258.055.496.055.719zm5.074 6.464c.59-2.039 1.504-3.753 2.738-5.148 1.235-1.41 2.39-2.113 3.473-2.113 1.078 0 1.844.332 2.293.988.453.66.676 1.555.676 2.691 0 1.125-.172 2.707-.52 4.747-.348 2.05-.52 3.543-.52 4.472 0 .93.114 1.61.344 2.035.235.426.625.785 1.18 1.082-.234.028-.563.04-.984.04-1.157 0-2.012-.239-2.567-.715-.539-.48-.808-1.297-.808-2.461 0-.672.18-2.02.539-4.047.359-2.04.539-3.54.539-4.492 0-1.188-.418-1.782-1.254-1.782-.488 0-1.028.258-1.617.774-.594.504-1.164 1.195-1.72 2.07-.538.879-.995 1.996-1.366 3.352a14.727 14.727 0 00-.563 3.968c0 1.32.059 2.293.176 2.926-.438.04-.684.059-.734.059-.848 0-1.473-.18-1.871-.543-.41-.36-.618-.93-.618-1.703 0-.762.16-2.242.485-4.434.949-6.726 1.425-11.836 1.425-15.32 0-1.574-.101-2.633-.308-3.176 1.043.387 1.773.95 2.2 1.684.425.75.636 1.77.636 3.062 0 .902-.18 2.8-.54 5.691a343.92 343.92 0 00-.714 6.293zm20.426-5.847c-1.082 0-1.996.62-2.739 1.86-.761 1.253-1.261 2.718-1.507 4.398h.754c.953 0 1.78-.137 2.488-.41.695-.27 1.234-.618 1.62-1.044.72-.84 1.079-1.78 1.079-2.828 0-.593-.14-1.07-.426-1.433-.281-.364-.707-.543-1.27-.543zm3.797 10.98c-.82 1.356-1.727 2.305-2.72 2.848-.987.543-2.14.812-3.452.812-1.297 0-2.434-.582-3.414-1.742-.977-1.148-1.465-2.777-1.465-4.879 0-2.39.644-4.52 1.93-6.39.628-.907 1.453-1.64 2.468-2.211 1.016-.555 2.133-.832 3.356-.832 2.699 0 4.05 1.312 4.05 3.933 0 1.575-.605 2.809-1.812 3.7-1.223.89-2.629 1.335-4.227 1.335-1.066 0-2.023-.097-2.87-.292-.016.183-.02.46-.02.832 0 3.203.945 4.804 2.836 4.804 1.773 0 3.218-.883 4.34-2.652.668.09 1 .336 1 .734zm-.54-14.425c-.011.19-.109.378-.289.562-.168.164-.359.277-.578.328-.644-.812-1.472-1.613-2.488-2.402-1.016-.801-2.05-1.364-3.105-1.684.039-.945.476-1.687 1.312-2.226.95.37 1.934 1.12 2.95 2.246 1.015 1.11 1.75 2.168 2.198 3.176zm7.965 8.867c.645-2.348 1.422-4.078 2.336-5.188.91-1.113 1.758-1.668 2.543-1.668.785 0 1.371.293 1.758.871.399.594.598 1.344.598 2.25 0 .903-.235 1.684-.696 2.34-.476.66-1.164.988-2.062.988-.285 0-.508-.02-.676-.058.617-.89.926-1.793.926-2.711 0-.645-.266-.969-.793-.969-.41 0-.848.242-1.309.719-.476.488-.925 1.168-1.351 2.031-.438.88-.797 2.008-1.078 3.39-.297 1.395-.446 2.9-.446 4.512 0 .18.043.95.137 2.305-.465.04-.734.059-.812.059-1.582 0-2.372-.781-2.372-2.344 0-.36.192-1.75.579-4.164.37-2.426.558-4.355.558-5.79 0-1.444-.152-2.769-.46-3.968 1.066.41 1.812 1 2.234 1.762.425.773.636 1.672.636 2.691 0 1.02-.082 2-.25 2.942zm15.91-5.422c-1.078 0-1.996.62-2.757 1.86-.746 1.253-1.239 2.718-1.485 4.398h.754c.95 0 1.781-.137 2.488-.41.692-.27 1.235-.618 1.618-1.044.722-.84 1.082-1.78 1.082-2.828 0-.593-.14-1.07-.426-1.433-.281-.364-.707-.543-1.274-.543zm3.801 10.98c-.824 1.356-1.73 2.305-2.718 2.848-.993.543-2.141.812-3.454.812-1.296 0-2.437-.582-3.414-1.742-.976-1.148-1.464-2.777-1.464-4.879 0-2.39.644-4.52 1.93-6.39.628-.907 1.452-1.64 2.468-2.211 1.016-.555 2.133-.832 3.355-.832 2.7 0 4.051 1.312 4.051 3.933 0 1.575-.605 2.809-1.812 3.7-1.223.89-2.633 1.335-4.227 1.335-1.066 0-2.023-.097-2.871-.292-.016.183-.02.46-.02.832 0 3.203.946 4.804 2.833 4.804 1.777 0 3.222-.883 4.34-2.652.671.09 1.003.336 1.003.734zm0 0"/><path d="M21.633 18.246v-.039a3.081 3.081 0 00-1.883-1.465h-.074a6.282 6.282 0 00-1.34-.25 8.401 8.401 0 01-3.445-1.281.4.4 0 00-.54.121.401.401 0 00.09.547c.344.223.7.422 1.07.598 0 .05-.046.105-.062.164a3.273 3.273 0 002.223 4.039c.308.09.629.136.953.136.98.004 1.91-.449 2.512-1.226.047.539.011 1.082-.098 1.613a.407.407 0 00.254.54.71.71 0 00.129 0 .408.408 0 00.379-.278 6.24 6.24 0 00.125-2.203 2.696 2.696 0 00-.293-1.016zm-2.39-.805a.85.85 0 010 .282.707.707 0 01-.872.488.707.707 0 01-.484-.871.394.394 0 01.047-.09l.32.035c.336.027.672.082.996.164zm.5 2.29a2.508 2.508 0 01-1.864.171 2.469 2.469 0 01-1.68-3.05v-.067c.297.117.602.215.91.297v.031a1.517 1.517 0 00.387 1.543 1.501 1.501 0 002.531-.914c.32.164.594.41.793.711-.183.543-.562 1-1.066 1.277zm14.519-3.102c0-.059-.043-.106-.067-.164a9.243 9.243 0 001.07-.598.4.4 0 00.09-.547.399.399 0 00-.539-.12 8.292 8.292 0 01-3.445 1.28 6.08 6.08 0 00-1.348.254h-.066a3.054 3.054 0 00-1.895 1.473v.027a2.654 2.654 0 00-.289 1.047 6.354 6.354 0 00.122 2.207c.058.164.21.274.382.274a.39.39 0 00.332-.168.405.405 0 00.055-.371 5.454 5.454 0 01-.102-1.614 3.134 3.134 0 002.512 1.227c.32 0 .64-.043.953-.133a3.277 3.277 0 002.235-4.074zm-2.84.656l.32-.035c.02.027.035.059.047.09a.701.701 0 01-.477.863.689.689 0 01-.644-.137.687.687 0 01-.227-.625c.325-.078.653-.132.985-.156zm.39 2.617a2.508 2.508 0 01-1.863-.172 2.304 2.304 0 01-1.074-1.28c.2-.302.473-.544.793-.708a1.5 1.5 0 00.039.2c.191.64.777 1.078 1.441 1.078.457-.012.887-.23 1.165-.598.277-.371.37-.844.253-1.29v-.034c.309-.082.614-.18.91-.293v.062a2.474 2.474 0 01-1.663 3.035zm0 0" fill="#1d1d1b"/><path d="M22.883 17.61c-.086-1.212-1.07-1.981-2.758-2.11a6.221 6.221 0 01-2.508-.906.4.4 0 00-.558.113.407.407 0 00.113.559 6.868 6.868 0 002.894 1.035c.723.054 1.942.308 2.02 1.363a.4.4 0 00.402.375h.024a.4.4 0 00.37-.43zm6.953-1.31a6.87 6.87 0 002.89-1.034.4.4 0 00.114-.559.395.395 0 00-.555-.113c-.762.488-1.62.8-2.515.922-1.665.129-2.676.898-2.758 2.109a.394.394 0 00.097.293c.07.082.172.133.278.137h.027c.211 0 .387-.164.402-.375.075-1.086 1.317-1.317 2.02-1.38zM16.62 13.5c.09.117.234.176.379.152a.405.405 0 00.242-.664l-1.707-2.105a.397.397 0 00-.379-.153.398.398 0 00-.316.258.398.398 0 00.074.403zm1.8-1.168a.398.398 0 00.7.086.402.402 0 00.05-.363l-.757-1.98a.403.403 0 00-.75.29zm2.142.059c.21.004.386-.16.402-.371l.133-1.707a.39.39 0 00-.094-.297.4.4 0 00-.274-.141.39.39 0 00-.296.094.388.388 0 00-.137.277l-.137 1.715a.4.4 0 00.11.305.382.382 0 00.293.125zm0 0" fill="#1d1d1b"/><path d="M49.117 26.273c-2.086-.664-7.004-.605-11-.425 2.676-3.391 2.676-6.672 2.2-8.215-.364-1.156-.926-4.074-.208-5.207a.831.831 0 01.633-.414c.942-.125 1.113-1.11 1.246-1.895.04-.281.102-.558.188-.828.164-.289.386-.543.656-.738a5.697 5.697 0 001.703-2.274c.852-2.101-.289-3.14-.34-3.183a.348.348 0 00-.148-.07h-.074a3.286 3.286 0 00-2.578.39c-.364.18-.813.395-1.477.676a3.677 3.677 0 01-4.285-.711C33.219 1.055 31.523.383 24.875.383c-6.648 0-8.324.676-10.71 2.996a3.68 3.68 0 01-4.286.71c-.5-.21-.992-.437-1.48-.675-.77-.48-1.7-.621-2.575-.39h-.078a.348.348 0 00-.148.07c-.047.043-1.188 1.074-.336 3.183.363.891.953 1.672 1.703 2.274.265.195.488.449.652.738.055.281.086.563.09.852.133.789.3 1.77 1.25 1.89a.855.855 0 01.633.414c.715 1.137.152 4.051-.211 5.207-.488 1.543-.465 4.84 2.203 8.22-3.996-.184-8.914-.243-11.004.425a.4.4 0 00-.258.508c.067.21.293.328.504.261 2.192-.699 8.035-.539 11.344-.355h.137l.347.371c-4.113.059-6.906.344-8.304.848a.404.404 0 00-.266.308.397.397 0 00.54.45c1.382-.5 4.448-.778 8.87-.81.188.161.383.317.574.474-3.464.191-9.105.648-11.25 1.613a.402.402 0 00.324.734c2.231-.984 8.665-1.418 11.9-1.586l.538.387.05.04c-3.366.327-5.671.753-6.85 1.269a.404.404 0 00.324.738c1.109-.492 3.453-.91 6.812-1.227-.016.992.106 1.985.363 2.946.875 2.324 2.07 2.894 3.461 3.011.2.38.477.711.813.973a8.221 8.221 0 00-1.813 2.406.405.405 0 00.23.524.403.403 0 00.52-.235c.145-.375.578-1.074 1.762-2.254.34.176.7.317 1.07.422a6.053 6.053 0 00-.492 1.844.409.409 0 00.102.293c.07.078.172.125.277.133.215 0 .39-.168.402-.383.07-.59.235-1.168.489-1.703 1.16.191 2.343.191 3.504 0 .25.539.414 1.113.484 1.703a.406.406 0 00.402.383.408.408 0 00.383-.426 6.22 6.22 0 00-.476-1.852 5.681 5.681 0 001.07-.417c1.183 1.18 1.605 1.878 1.762 2.253a.403.403 0 00.75-.29 8.133 8.133 0 00-1.817-2.405c.336-.262.613-.594.817-.973 1.39-.117 2.585-.683 3.453-3.007.25-.957.367-1.942.347-2.93 3.36.316 5.711.734 6.813 1.227a.41.41 0 00.422-.028.407.407 0 00.168-.383.412.412 0 00-.266-.328c-1.191-.539-3.535-.953-6.965-1.281l.43-.3.164-.118c3.215.16 9.75.598 12.012 1.613a.403.403 0 00.5-.218.412.412 0 00-.18-.52c-2.176-.957-7.828-1.406-11.285-1.613.203-.153.398-.309.594-.473 4.433.027 7.5.309 8.886.813.207.07.43-.04.504-.247a.406.406 0 00-.23-.511c-1.395-.504-4.184-.79-8.305-.852l.348-.37h.136c3.293-.165 9.153-.345 11.344.355a.432.432 0 10.25-.829zM26.621 36.445a.402.402 0 10-.695.403c.086.144.207.379.344.644a9.587 9.587 0 01-2.797 0c.187-.379.336-.637.343-.644a.407.407 0 00-.148-.551.407.407 0 00-.55.148c0 .032-.223.39-.466.895a3.774 3.774 0 01-1.918-1.078h1.301a3.21 3.21 0 002.813-1.688 3.219 3.219 0 002.836 1.684h1.3a3.74 3.74 0 01-1.918 1.074c-.242-.484-.445-.84-.464-.875zm9.16-9.285l-.043.035c-.449.375-.949.742-1.437 1.075h-.414c.066-.918.238-1.747.57-1.997a.406.406 0 00.07-.574.406.406 0 00-.574-.07c-.535.445-.77 1.422-.871 2.598h-.328a.397.397 0 00-.29.105.398.398 0 00-.12.29.402.402 0 00.39.413h.301v.395h-.097a.403.403 0 00-.07.805h.112a10.78 10.78 0 01-.3 2.714c-.754 2.016-1.66 2.442-2.973 2.508h-2.023a2.441 2.441 0 01-2.43-2.398c.187-.18.398-.332.625-.454.535-.343 1.32-.816 1.031-1.5-.101-.238-.031-.351.89-.98l.337-.23a1.32 1.32 0 00.695-1.075 1.115 1.115 0 00-.508-.863.395.395 0 00-.535.121.405.405 0 00.113.535c.043.032.137.125.145.2.004.074-.09.222-.356.402l-.332.234c-.87.59-1.558 1.074-1.175 1.918-.043.137-.477.399-.715.54a5.72 5.72 0 00-.606.413 5.345 5.345 0 00-.605-.414 4.089 4.089 0 01-.711-.5c.379-.898-.313-1.367-1.18-1.965l-.332-.23c-.258-.184-.351-.328-.351-.402 0-.079.093-.168.136-.2a.407.407 0 00.106-.547.405.405 0 00-.54-.132c-.292.191-.48.511-.507.863.035.453.297.86.695 1.074l.34.23c.926.63.988.743.887.981-.29.688.476 1.156 1.035 1.5.215.125.426.262.621.414a2.435 2.435 0 01-2.43 2.43h-.836c-1.992.05-3.214.078-4.168-2.504a10.81 10.81 0 01-.3-2.719h.113a.403.403 0 10-.07-.804h-.075v-.399h.301a.404.404 0 000-.809h-.328c-.102-1.175-.312-2.148-.875-2.597a.44.44 0 00-.55.684c.331.265.488 1.078.57 1.996h-.512c-.453-.344-.91-.704-1.328-1.075a.492.492 0 00-.078-.078 9.48 9.48 0 01-.41-.37l1.25.081h.03a.402.402 0 10.032-.805s-.84-.066-2.14-.136c-2.915-3.328-2.989-6.563-2.528-8.024 0-.043 1.246-4.097.121-5.879a1.64 1.64 0 00-1.176-.77c-.336-.042-.441-.538-.539-1.23a5.025 5.025 0 00-.234-.992 2.902 2.902 0 00-.871-1.047A4.873 4.873 0 015.934 5.97c-.536-1.27-.122-1.965.054-2.192.39-.035.785.067 1.11.29.035.03 4.027 2.968 5.777 2.968h.188c-1.606 1.156-2.547 2.637-2.547 4.082a.401.401 0 10.8 0c0-1.512 1.395-3.168 3.555-4.226a7.365 7.365 0 002.399-.801.41.41 0 00.214-.348.415.415 0 00-.199-.36.408.408 0 00-.406 0 8.227 8.227 0 01-4.05.852c-.669 0-1.95-.652-3.138-1.37a4.438 4.438 0 004.98-.93c2.142-2.055 3.477-2.774 10.177-2.774 6.703 0 8.035.723 10.18 2.774a4.38 4.38 0 003.09 1.316 5.169 5.169 0 001.843-.367c-1.188.715-2.465 1.363-3.129 1.363a8.305 8.305 0 01-4.05-.851.403.403 0 00-.391.703c.75.41 1.57.687 2.414.812 2.144 1.078 3.554 2.692 3.554 4.23a.401.401 0 10.801 0c0-1.453-.945-2.933-2.547-4.081h.235c1.75 0 5.742-2.938 5.777-2.97a1.71 1.71 0 011.105-.292c.176.23.563.93.055 2.195a4.835 4.835 0 01-1.492 1.973 2.948 2.948 0 00-.871 1.05c-.113.32-.192.653-.234.989-.126.715-.227 1.187-.54 1.23a1.656 1.656 0 00-1.203.782c-1.129 1.78.106 5.84.121 5.879.47 1.468.387 4.699-2.527 8.023-1.281.07-2.14.137-2.14.137a.402.402 0 00-.387.418.4.4 0 00.418.386h.03l1.25-.078c-.112.121-.28.25-.429.38zm0 0" fill="#1d1d1b"/><path d="M32.762 13.652a.409.409 0 00.308-.152l1.711-2.11a.406.406 0 00.07-.402.387.387 0 00-.312-.258.403.403 0 00-.383.153l-1.707 2.105a.403.403 0 00.313.657zm-1.985-1.086a.449.449 0 00.145 0 .401.401 0 00.375-.261l.758-1.977a.409.409 0 00-.23-.523.403.403 0 00-.52.23l-.758 1.98a.407.407 0 00-.004.325.406.406 0 00.234.226zm-1.644-.168a.4.4 0 00.37-.437l-.132-1.715a.41.41 0 00-.437-.371.406.406 0 00-.368.438l.133 1.714a.408.408 0 00.14.278.42.42 0 00.294.093zm0 0M19.055 31.027a.566.566 0 01-.563.567.563.563 0 11.563-.567zm0 0M19.242 32.95a.566.566 0 01-.562.566.563.563 0 01-.563-.567c0-.312.25-.566.563-.566.308 0 .562.254.562.566zm0 0M20.707 34.215a.563.563 0 01-1.125 0 .563.563 0 111.125 0zm0 0M21.2 32.25c0 .313-.25.566-.563.566a.566.566 0 010-1.132c.312 0 .562.253.562.566zm0 0M22.766 33.238a.566.566 0 01-.563.567.563.563 0 01-.562-.567.563.563 0 011.125 0zm0 0M31.77 31.027a.566.566 0 01-.563.567.563.563 0 11.563-.567zm0 0M31.582 32.95a.566.566 0 01-.562.566.563.563 0 01-.563-.567c0-.312.25-.566.563-.566.308 0 .562.254.562.566zm0 0M30.113 34.215a.563.563 0 01-1.125 0 .563.563 0 111.125 0zm0 0M29.621 32.25c0 .313-.25.566-.562.566a.566.566 0 010-1.132c.312 0 .562.253.562.566zm0 0M28.059 33.238a.566.566 0 01-.563.567.563.563 0 01-.562-.567.563.563 0 011.125 0zm0 0M26.754 21.703a.402.402 0 00-.434.371 4.95 4.95 0 01-1.472 2.899 4.923 4.923 0 01-1.461-2.903.403.403 0 10-.805.063 5.938 5.938 0 002 3.691c.07.059.16.09.25.09.094 0 .18-.031.254-.09a5.951 5.951 0 001.996-3.691.405.405 0 00-.328-.43zm-7.063 1.453a.397.397 0 00-.535.145 8.67 8.67 0 01-.394.597c-.715 1.043-1.797 2.625-.27 4.301a.403.403 0 00.528-.008.406.406 0 00.058-.53c-1.012-1.102-.496-2.052.344-3.278.156-.235.305-.45.422-.653a.396.396 0 00.05-.324.407.407 0 00-.203-.25zm10.883.145a.395.395 0 00-.547-.149.4.4 0 00-.148.551c.117.203.266.418.422.652.84 1.227 1.355 2.176.344 3.282a.395.395 0 00-.13.414.402.402 0 00.719.121c1.528-1.66.446-3.227-.273-4.3a8.624 8.624 0 01-.387-.571zm-10.07 5.125a.401.401 0 00-.258-.508.399.399 0 00-.508.262 2.222 2.222 0 001.024 2.59.4.4 0 00.55-.149.407.407 0 00-.148-.55 1.411 1.411 0 01-.66-1.645zm8.426 2.328a2.224 2.224 0 001.023-2.59.399.399 0 00-.508-.262.404.404 0 00-.258.508 1.407 1.407 0 01-.66 1.63.403.403 0 00-.144.55c.11.195.355.262.547.148zm-2.54-2.246c-.39.445-.953.703-1.542.703a2.058 2.058 0 01-1.547-.703.409.409 0 10-.621.535 2.84 2.84 0 004.328 0 .409.409 0 10-.621-.535zm-11.98-7.871a.4.4 0 00-.422-.012.405.405 0 00.035.719c1.41.777 2.02 1.93 2.02 2.343a.402.402 0 10.805 0c0-.832-.914-2.207-2.438-3.05zm21.469.164a.403.403 0 00-.535-.164c-1.54.843-2.461 2.218-2.461 3.054 0 .223.18.407.402.407a.405.405 0 00.403-.407c0-.414.609-1.57 2.019-2.343a.404.404 0 00.172-.547zm0 0" fill="#1d1d1b"/><path d="M61.137 30.652l-.489-1.234h-1.87l-.489 1.234h-.312l1.562-3.925h.352l1.558 3.925zm-2.25-1.504h1.656l-.684-1.71-.144-.418h-.004l-.145.402zm7.66-.418h1.605v1.922h-.238l-.012-.683a1.161 1.161 0 01-.5.55c-.226.13-.507.192-.843.192a1.72 1.72 0 01-.93-.246 1.594 1.594 0 01-.621-.707 2.527 2.527 0 01-.215-1.07c0-.407.074-.762.227-1.07.144-.305.351-.54.62-.704.266-.164.579-.246.934-.246.403 0 .727.078.977.238.254.157.445.399.574.727l-.277.137a1.142 1.142 0 00-.457-.618c-.215-.144-.485-.215-.817-.215-.289 0-.547.07-.77.215-.218.141-.39.344-.511.606a2.158 2.158 0 00-.188.93c0 .546.13.972.391 1.285.258.312.617.465 1.074.465.285 0 .528-.055.723-.168.2-.114.344-.262.437-.446.094-.183.145-.383.145-.597v-.215h-1.328zm5.914 1.649h2.465v.273h-2.762v-3.925h2.668v.27h-2.371v1.519h1.875v.28H72.46zm9.289-3.652v3.925h-.367l-2.074-3.082-.286-.52h-.007l.02.493v3.11h-.29v-3.926h.379l2.063 3.074.296.527-.011-.492v-3.11zm7.29 2.93a1.466 1.466 0 01-.58.777c-.276.187-.605.277-.983.277a1.79 1.79 0 01-.942-.246 1.643 1.643 0 01-.62-.707c-.145-.305-.216-.66-.216-1.07 0-.407.07-.762.215-1.07.148-.305.356-.54.621-.704.274-.164.582-.246.934-.246.781 0 1.285.32 1.52.969l-.294.133c-.09-.278-.234-.485-.437-.622-.2-.14-.457-.21-.774-.21-.289 0-.546.07-.77.214a1.39 1.39 0 00-.519.606 2.218 2.218 0 00-.183.93c0 .359.062.667.183.933.118.262.285.465.508.606.219.14.477.21.774.21.316 0 .582-.074.804-.23.219-.156.371-.375.461-.66zm4.128.722h2.469v.273H92.87v-3.925h2.668v.27h-2.371v1.519h1.879v.28h-1.879zm12.336-3.652c.625 0 1.105.164 1.445.496.336.332.504.812.504 1.437 0 .64-.168 1.137-.504 1.477-.34.343-.82.515-1.445.515h-1.23v-3.925zm.027 3.652c.52 0 .918-.149 1.196-.445.28-.293.418-.72.418-1.274 0-.535-.137-.941-.418-1.23-.278-.29-.676-.434-1.196-.434h-.96v3.383zm6.172 0h2.465v.273h-2.762v-3.925h2.672v.27h-2.375v1.519h1.875v.28h-1.875zm13.04-2.48l-.786 2.753h-.367l-1.219-3.925h.32l1.082 3.683 1.024-3.683h.344l1.023 3.687 1.098-3.687h.304l-1.222 3.925h-.364l-.793-2.754-.214-.847h-.008zm6.87 2.48h2.473v.273h-2.77v-3.925h2.676v.27h-2.379v1.519h1.88v.28h-1.88zm6.293.273v-3.925h1.38c.429 0 .75.09.96.265.207.18.313.438.313.774 0 .23-.063.425-.188.582-.121.16-.3.261-.527.312v.004c.254.04.453.14.601.309a.904.904 0 01.223.62c0 .337-.117.598-.36.782-.238.184-.581.277-1.023.277zm.297-2.117h1.09c.637 0 .953-.254.953-.77 0-.511-.316-.769-.953-.769h-1.09zm0 1.844h1.14c.333 0 .587-.067.755-.203.168-.137.254-.328.254-.582 0-.258-.086-.453-.254-.586-.168-.133-.422-.2-.754-.2h-1.14zm12.453-3.652c.63 0 1.11.164 1.446.496.34.332.507.812.507 1.437 0 .64-.168 1.137-.507 1.477-.336.343-.817.515-1.446.515h-1.23v-3.925zm.028 3.652c.523 0 .921-.149 1.203-.445.273-.293.414-.72.414-1.274 0-.535-.14-.941-.414-1.23-.282-.29-.68-.434-1.203-.434h-.961v3.383zm6.171 0h2.473v.273h-2.77v-3.925h2.672v.27h-2.375v1.519h1.88v.28h-1.88zm7.5-3.711c.735 0 1.227.289 1.477.867l-.254.207c-.101-.281-.25-.484-.445-.613-.196-.125-.453-.192-.77-.192-.23 0-.433.04-.601.114a.873.873 0 00-.387.289.68.68 0 00-.133.414c0 .152.04.273.113.375.075.098.2.183.383.254.18.066.426.129.742.187.508.086.872.215 1.083.383.214.164.32.395.32.688 0 .21-.063.394-.184.562-.12.16-.293.285-.515.371-.227.09-.485.137-.77.137-.41 0-.754-.082-1.039-.246a1.256 1.256 0 01-.578-.692l.262-.203c.078.282.238.496.476.645.238.148.535.223.887.223.34 0 .613-.067.828-.208a.643.643 0 00.328-.574.571.571 0 00-.27-.496c-.171-.125-.476-.223-.913-.297a4.386 4.386 0 01-.872-.234c-.21-.09-.363-.203-.457-.34a.88.88 0 01-.136-.504c0-.203.054-.387.172-.558.117-.172.28-.309.5-.407.214-.101.464-.152.753-.152zm5.715.059v3.925h-.297v-3.925zm5.7 2.003h1.601v1.922h-.234l-.008-.683c-.11.238-.277.422-.504.55-.227.13-.508.192-.844.192-.355 0-.668-.082-.933-.246a1.602 1.602 0 01-.614-.707c-.144-.305-.214-.66-.214-1.07 0-.407.07-.762.218-1.07.149-.305.36-.54.625-.704.27-.164.582-.246.938-.246.394 0 .722.078.976.238.254.157.442.399.567.727l-.27.137a1.181 1.181 0 00-.457-.618c-.219-.144-.492-.215-.816-.215-.297 0-.551.07-.774.215-.218.141-.39.344-.515.606-.121.265-.18.574-.18.93 0 .546.129.972.387 1.285.258.312.617.465 1.074.465.285 0 .523-.055.723-.168a1.09 1.09 0 00.437-.446c.098-.183.145-.383.145-.597v-.215h-1.328zm8.617-2.003v3.925h-.367l-2.075-3.082-.285-.52h-.008l.016.493v3.11h-.285v-3.926h.375l2.066 3.074.297.527-.012-.492v-3.11zm0 0"/></svg>